<svg width="162" height="120" viewBox="0 0 162 120" fill="none" xmlns="http://www.w3.org/2000/svg">
<path d="M79.9954 26.8899C79.9954 32.9042 76.9044 37.7798 73.0916 37.7798C69.2787 37.7798 66.1878 32.9042 66.1878 26.8899C66.1878 20.8756 69.2787 16 73.0916 16C76.9044 16 79.9954 20.8756 79.9954 26.8899Z" fill="black"/>
<path d="M99.0463 61.3344C99.0463 67.02 93.7595 65.8641 83.0712 63.9699C74.7598 66.1935 65.8382 67.02 65.8382 61.3344C65.8382 55.6489 75.6618 42.31 82.2771 42.31C88.8924 42.31 99.0463 55.6489 99.0463 61.3344Z" fill="black"/>
<path d="M67.9994 37.8132C70.07 42.4506 69.3652 47.2675 66.4253 48.5721C63.4853 49.8767 59.4234 47.1749 57.3528 42.5374C55.2822 37.9 55.9869 33.0831 58.9269 31.7785C61.8669 30.4739 65.9287 33.1757 67.9994 37.8132Z" fill="black"/>
<path d="M105.178 42.8213C102.949 47.3851 98.796 49.9462 95.9027 48.5417C93.0094 47.1372 92.471 42.299 94.7002 37.7352C96.9294 33.1714 101.082 30.6103 103.975 32.0148C106.869 33.4192 107.407 38.2575 105.178 42.8213Z" fill="black"/>
<path d="M96.5994 26.8899C96.5994 32.9042 93.5085 37.7798 89.6956 37.7798C85.8828 37.7798 82.7918 32.9042 82.7918 26.8899C82.7918 20.8756 85.8828 16 89.6956 16C93.5085 16 96.5994 20.8756 96.5994 26.8899Z" fill="black"/>
<path d="M21.994 96.7697V81.8373H16.1052V78.3671H32.1417V81.8373H26.2529V96.7697H21.994ZM42.7407 82.4157C43.8624 82.4157 44.8614 82.6435 45.7377 83.0992C46.6316 83.5374 47.3326 84.2209 47.8409 85.1498C48.3491 86.0612 48.6033 87.2354 48.6033 88.6726V96.7697H44.5021V89.3035C44.5021 88.1643 44.248 87.3231 43.7397 86.7797C43.249 86.2364 42.5479 85.9648 41.6366 85.9648C40.9881 85.9648 40.4009 86.105 39.8752 86.3854C39.3669 86.6483 38.9638 87.0602 38.6658 87.621C38.3854 88.1818 38.2452 88.9004 38.2452 89.7767V96.7697H34.1441V77.2629H38.2452V86.5431L37.3251 85.3601C37.8333 84.4137 38.5607 83.6863 39.5071 83.1781C40.4535 82.6698 41.5314 82.4157 42.7407 82.4157ZM59.4427 96.9801C57.8303 96.9801 56.4107 96.6646 55.1838 96.0336C53.9745 95.4027 53.0369 94.5439 52.3709 93.4573C51.7049 92.3531 51.3719 91.1 51.3719 89.6979C51.3719 88.2782 51.6961 87.0251 52.3446 85.9385C53.0106 84.8343 53.9132 83.9755 55.0524 83.3621C56.1916 82.7312 57.4798 82.4157 58.917 82.4157C60.3015 82.4157 61.5459 82.7136 62.6501 83.3095C63.7717 83.8879 64.6568 84.7292 65.3053 85.8333C65.9538 86.9199 66.278 88.2257 66.278 89.7504C66.278 89.9082 66.2692 90.0922 66.2517 90.3025C66.2342 90.4953 66.2167 90.6793 66.1991 90.8546H54.7106V88.4623H64.0434L62.466 89.1721C62.466 88.436 62.3171 87.7963 62.0191 87.2529C61.7212 86.7096 61.3093 86.289 60.7835 85.9911C60.2577 85.6756 59.6443 85.5178 58.9432 85.5178C58.2422 85.5178 57.62 85.6756 57.0767 85.9911C56.5509 86.289 56.139 86.7184 55.8411 87.2792C55.5431 87.8226 55.3942 88.471 55.3942 89.2247V89.8556C55.3942 90.6268 55.5607 91.3103 55.8937 91.9062C56.2442 92.4846 56.7262 92.9315 57.3396 93.2469C57.9705 93.5449 58.7066 93.6939 59.5479 93.6939C60.3015 93.6939 60.9588 93.5799 61.5196 93.3521C62.098 93.1243 62.6238 92.7825 63.097 92.3268L65.279 94.6929C64.6305 95.429 63.8156 95.9986 62.8341 96.4017C61.8526 96.7873 60.7222 96.9801 59.4427 96.9801Z" fill="black"/>
<path d="M76.7429 96.7697V78.3671H85.1029C87.1009 78.3671 88.8623 78.7527 90.3871 79.5238C91.9119 80.2775 93.1037 81.3378 93.9625 82.7049C94.8213 84.0719 95.2507 85.6931 95.2507 87.5684C95.2507 89.4262 94.8213 91.0474 93.9625 92.432C93.1037 93.799 91.9119 94.8681 90.3871 95.6393C88.8623 96.3929 87.1009 96.7697 85.1029 96.7697H76.7429ZM81.0018 93.2732H84.8926C86.1194 93.2732 87.1798 93.0454 88.0736 92.5897C88.985 92.1165 89.686 91.4505 90.1768 90.5917C90.685 89.7329 90.9392 88.7252 90.9392 87.5684C90.9392 86.3942 90.685 85.3864 90.1768 84.5451C89.686 83.6863 88.985 83.0291 88.0736 82.5734C87.1798 82.1002 86.1194 81.8636 84.8926 81.8636H81.0018V93.2732ZM104.903 96.9801C103.396 96.9801 102.055 96.6646 100.881 96.0336C99.7244 95.4027 98.8042 94.5439 98.1207 93.4573C97.4547 92.3531 97.1217 91.1 97.1217 89.6979C97.1217 88.2782 97.4547 87.0251 98.1207 85.9385C98.8042 84.8343 99.7244 83.9755 100.881 83.3621C102.055 82.7312 103.396 82.4157 104.903 82.4157C106.393 82.4157 107.725 82.7312 108.899 83.3621C110.074 83.9755 110.994 84.8256 111.66 85.9122C112.326 86.9988 112.659 88.2607 112.659 89.6979C112.659 91.1 112.326 92.3531 111.66 93.4573C110.994 94.5439 110.074 95.4027 108.899 96.0336C107.725 96.6646 106.393 96.9801 104.903 96.9801ZM104.903 93.615C105.587 93.615 106.2 93.4573 106.744 93.1418C107.287 92.8263 107.716 92.3794 108.032 91.801C108.347 91.2051 108.505 90.5041 108.505 89.6979C108.505 88.8741 108.347 88.1731 108.032 87.5947C107.716 87.0163 107.287 86.5694 106.744 86.2539C106.2 85.9385 105.587 85.7807 104.903 85.7807C104.22 85.7807 103.606 85.9385 103.063 86.2539C102.52 86.5694 102.082 87.0163 101.749 87.5947C101.433 88.1731 101.275 88.8741 101.275 89.6979C101.275 90.5041 101.433 91.2051 101.749 91.801C102.082 92.3794 102.52 92.8263 103.063 93.1418C103.606 93.4573 104.22 93.615 104.903 93.615ZM122.051 102.08C120.719 102.08 119.431 101.914 118.187 101.581C116.96 101.265 115.935 100.783 115.111 100.135L116.741 97.1904C117.337 97.6811 118.09 98.0667 119.002 98.3471C119.931 98.6451 120.842 98.794 121.736 98.794C123.191 98.794 124.242 98.4698 124.891 97.8213C125.557 97.1728 125.89 96.2089 125.89 94.9295V92.8L126.152 89.2509L126.1 85.6756V82.626H129.991V94.4037C129.991 97.0326 129.307 98.9693 127.94 100.214C126.573 101.458 124.61 102.08 122.051 102.08ZM121.42 96.0862C120.106 96.0862 118.914 95.8058 117.845 95.2449C116.793 94.6666 115.943 93.8691 115.295 92.8526C114.664 91.8186 114.349 90.618 114.349 89.2509C114.349 87.8664 114.664 86.6658 115.295 85.6493C115.943 84.6152 116.793 83.8178 117.845 83.2569C118.914 82.6961 120.106 82.4157 121.42 82.4157C122.612 82.4157 123.664 82.6611 124.575 83.1518C125.486 83.625 126.196 84.3699 126.705 85.3864C127.213 86.3854 127.467 87.6736 127.467 89.2509C127.467 90.8108 127.213 92.099 126.705 93.1155C126.196 94.1145 125.486 94.8594 124.575 95.3501C123.664 95.8408 122.612 96.0862 121.42 96.0862ZM122.235 92.7212C122.954 92.7212 123.594 92.5809 124.154 92.3005C124.715 92.0026 125.153 91.5907 125.469 91.0649C125.784 90.5391 125.942 89.9345 125.942 89.2509C125.942 88.5499 125.784 87.9452 125.469 87.437C125.153 86.9112 124.715 86.5081 124.154 86.2277C123.594 85.9297 122.954 85.7807 122.235 85.7807C121.517 85.7807 120.877 85.9297 120.316 86.2277C119.755 86.5081 119.308 86.9112 118.975 87.437C118.66 87.9452 118.502 88.5499 118.502 89.2509C118.502 89.9345 118.66 90.5391 118.975 91.0649C119.308 91.5907 119.755 92.0026 120.316 92.3005C120.877 92.5809 121.517 92.7212 122.235 92.7212ZM138.566 96.9801C137.357 96.9801 136.191 96.8398 135.07 96.5594C133.966 96.2615 133.089 95.8934 132.441 95.4553L133.808 92.5108C134.456 92.9139 135.219 93.2469 136.095 93.5098C136.989 93.7552 137.865 93.8779 138.724 93.8779C139.67 93.8779 140.336 93.764 140.722 93.5361C141.125 93.3083 141.327 92.9928 141.327 92.5897C141.327 92.2567 141.169 92.0113 140.853 91.8536C140.555 91.6783 140.152 91.5469 139.644 91.4593C139.136 91.3716 138.575 91.284 137.962 91.1964C137.366 91.1087 136.761 90.9948 136.148 90.8546C135.534 90.6969 134.973 90.469 134.465 90.1711C133.957 89.8731 133.545 89.47 133.229 88.9618C132.932 88.4535 132.783 87.7963 132.783 86.9901C132.783 86.0962 133.037 85.3075 133.545 84.624C134.071 83.9405 134.824 83.4059 135.806 83.0203C136.787 82.6172 137.962 82.4157 139.329 82.4157C140.293 82.4157 141.274 82.5208 142.273 82.7312C143.272 82.9415 144.105 83.2482 144.771 83.6513L143.404 86.5694C142.72 86.1663 142.028 85.8947 141.327 85.7544C140.643 85.5967 139.977 85.5178 139.329 85.5178C138.417 85.5178 137.751 85.6405 137.331 85.8859C136.91 86.1313 136.7 86.4467 136.7 86.8323C136.7 87.1828 136.849 87.4457 137.147 87.621C137.462 87.7963 137.874 87.9365 138.382 88.0416C138.89 88.1468 139.443 88.2432 140.038 88.3308C140.652 88.4009 141.265 88.5148 141.879 88.6726C142.492 88.8303 143.044 89.0582 143.535 89.3561C144.043 89.6365 144.455 90.0309 144.771 90.5391C145.086 91.0299 145.244 91.6783 145.244 92.4846C145.244 93.3609 144.981 94.1408 144.455 94.8243C143.929 95.4903 143.167 96.0161 142.168 96.4017C141.186 96.7873 139.986 96.9801 138.566 96.9801Z" fill="#FF7A00"/>
</svg>
