<svg width="210" height="152" viewBox="0 0 210 152" fill="none" xmlns="http://www.w3.org/2000/svg">
<path d="M103.633 30.9123C103.633 39.1481 99.4006 45.8246 94.1794 45.8246C88.9582 45.8246 84.7256 39.1481 84.7256 30.9123C84.7256 22.6765 88.9582 16 94.1794 16C99.4006 16 103.633 22.6765 103.633 30.9123Z" fill="white"/>
<path d="M129.721 78.0796C129.721 85.8652 122.481 84.2823 107.845 81.6884C96.4638 84.7334 84.2469 85.8652 84.2469 78.0796C84.2469 70.2939 97.699 52.0281 106.758 52.0281C115.817 52.0281 129.721 70.2939 129.721 78.0796Z" fill="white"/>
<path d="M87.2063 45.8703C90.0417 52.2206 89.0767 58.8168 85.0508 60.6033C81.0249 62.3897 75.4627 58.6899 72.6272 52.3396C69.7918 45.9892 70.7569 39.393 74.7828 37.6066C78.8087 35.8201 84.3709 39.5199 87.2063 45.8703Z" fill="white"/>
<path d="M138.117 52.7282C135.065 58.9777 129.378 62.4849 125.416 60.5616C121.454 58.6383 120.717 52.013 123.77 45.7635C126.822 39.514 132.509 36.0069 136.471 37.9301C140.433 39.8534 141.17 46.4787 138.117 52.7282Z" fill="white"/>
<path d="M126.37 30.9123C126.37 39.1481 122.138 45.8246 116.917 45.8246C111.695 45.8246 107.463 39.1481 107.463 30.9123C107.463 22.6765 111.695 16 116.917 16C122.138 16 126.37 22.6765 126.37 30.9123Z" fill="white"/>
<path d="M24.208 126V105.552H16.144V100.8H38.104V105.552H30.04V126H24.208ZM52.6179 106.344C54.1539 106.344 55.5219 106.656 56.7219 107.28C57.9459 107.88 58.9059 108.816 59.6019 110.088C60.2979 111.336 60.6459 112.944 60.6459 114.912V126H55.0299V115.776C55.0299 114.216 54.6819 113.064 53.9859 112.32C53.3139 111.576 52.3539 111.204 51.1059 111.204C50.2179 111.204 49.4139 111.396 48.6939 111.78C47.9979 112.14 47.4459 112.704 47.0379 113.472C46.6539 114.24 46.4619 115.224 46.4619 116.424V126H40.8459V99.288H46.4619V111.996L45.2019 110.376C45.8979 109.08 46.8939 108.084 48.1899 107.388C49.4859 106.692 50.9619 106.344 52.6179 106.344ZM75.4892 126.288C73.2812 126.288 71.3372 125.856 69.6572 124.992C68.0012 124.128 66.7172 122.952 65.8052 121.464C64.8932 119.952 64.4372 118.236 64.4372 116.316C64.4372 114.372 64.8812 112.656 65.7692 111.168C66.6812 109.656 67.9172 108.48 69.4772 107.64C71.0372 106.776 72.8012 106.344 74.7692 106.344C76.6652 106.344 78.3692 106.752 79.8812 107.568C81.4172 108.36 82.6292 109.512 83.5172 111.024C84.4052 112.512 84.8492 114.3 84.8492 116.388C84.8492 116.604 84.8372 116.856 84.8132 117.144C84.7892 117.408 84.7652 117.66 84.7412 117.9H69.0092V114.624H81.7892L79.6292 115.596C79.6292 114.588 79.4252 113.712 79.0172 112.968C78.6092 112.224 78.0452 111.648 77.3252 111.24C76.6052 110.808 75.7652 110.592 74.8052 110.592C73.8452 110.592 72.9932 110.808 72.2492 111.24C71.5292 111.648 70.9652 112.236 70.5572 113.004C70.1492 113.748 69.9452 114.636 69.9452 115.668V116.532C69.9452 117.588 70.1732 118.524 70.6292 119.34C71.1092 120.132 71.7692 120.744 72.6092 121.176C73.4732 121.584 74.4812 121.788 75.6332 121.788C76.6652 121.788 77.5652 121.632 78.3332 121.32C79.1252 121.008 79.8452 120.54 80.4932 119.916L83.4812 123.156C82.5932 124.164 81.4772 124.944 80.1332 125.496C78.7892 126.024 77.2412 126.288 75.4892 126.288Z" fill="white"/>
<path d="M99.1794 126V100.8H110.627C113.363 100.8 115.775 101.328 117.863 102.384C119.951 103.416 121.583 104.868 122.759 106.74C123.935 108.612 124.523 110.832 124.523 113.4C124.523 115.944 123.935 118.164 122.759 120.06C121.583 121.932 119.951 123.396 117.863 124.452C115.775 125.484 113.363 126 110.627 126H99.1794ZM105.011 121.212H110.339C112.019 121.212 113.471 120.9 114.695 120.276C115.943 119.628 116.903 118.716 117.575 117.54C118.271 116.364 118.619 114.984 118.619 113.4C118.619 111.792 118.271 110.412 117.575 109.26C116.903 108.084 115.943 107.184 114.695 106.56C113.471 105.912 112.019 105.588 110.339 105.588H105.011V121.212ZM137.742 126.288C135.678 126.288 133.842 125.856 132.234 124.992C130.65 124.128 129.39 122.952 128.454 121.464C127.542 119.952 127.086 118.236 127.086 116.316C127.086 114.372 127.542 112.656 128.454 111.168C129.39 109.656 130.65 108.48 132.234 107.64C133.842 106.776 135.678 106.344 137.742 106.344C139.782 106.344 141.606 106.776 143.214 107.64C144.822 108.48 146.082 109.644 146.994 111.132C147.906 112.62 148.362 114.348 148.362 116.316C148.362 118.236 147.906 119.952 146.994 121.464C146.082 122.952 144.822 124.128 143.214 124.992C141.606 125.856 139.782 126.288 137.742 126.288ZM137.742 121.68C138.678 121.68 139.518 121.464 140.262 121.032C141.006 120.6 141.594 119.988 142.026 119.196C142.458 118.38 142.674 117.42 142.674 116.316C142.674 115.188 142.458 114.228 142.026 113.436C141.594 112.644 141.006 112.032 140.262 111.6C139.518 111.168 138.678 110.952 137.742 110.952C136.806 110.952 135.966 111.168 135.222 111.6C134.478 112.032 133.878 112.644 133.422 113.436C132.99 114.228 132.774 115.188 132.774 116.316C132.774 117.42 132.99 118.38 133.422 119.196C133.878 119.988 134.478 120.6 135.222 121.032C135.966 121.464 136.806 121.68 137.742 121.68ZM161.223 133.272C159.399 133.272 157.635 133.044 155.931 132.588C154.251 132.156 152.847 131.496 151.719 130.608L153.951 126.576C154.767 127.248 155.799 127.776 157.047 128.16C158.319 128.568 159.567 128.772 160.791 128.772C162.783 128.772 164.223 128.328 165.111 127.44C166.023 126.552 166.479 125.232 166.479 123.48V120.564L166.839 115.704L166.767 110.808V106.632H172.095V122.76C172.095 126.36 171.159 129.012 169.287 130.716C167.415 132.42 164.727 133.272 161.223 133.272ZM160.359 125.064C158.559 125.064 156.927 124.68 155.463 123.912C154.023 123.12 152.859 122.028 151.971 120.636C151.107 119.22 150.675 117.576 150.675 115.704C150.675 113.808 151.107 112.164 151.971 110.772C152.859 109.356 154.023 108.264 155.463 107.496C156.927 106.728 158.559 106.344 160.359 106.344C161.991 106.344 163.431 106.68 164.679 107.352C165.927 108 166.899 109.02 167.595 110.412C168.291 111.78 168.639 113.544 168.639 115.704C168.639 117.84 168.291 119.604 167.595 120.996C166.899 122.364 165.927 123.384 164.679 124.056C163.431 124.728 161.991 125.064 160.359 125.064ZM161.475 120.456C162.459 120.456 163.335 120.264 164.103 119.88C164.871 119.472 165.471 118.908 165.903 118.188C166.335 117.468 166.551 116.64 166.551 115.704C166.551 114.744 166.335 113.916 165.903 113.22C165.471 112.5 164.871 111.948 164.103 111.564C163.335 111.156 162.459 110.952 161.475 110.952C160.491 110.952 159.615 111.156 158.847 111.564C158.079 111.948 157.467 112.5 157.011 113.22C156.579 113.916 156.363 114.744 156.363 115.704C156.363 116.64 156.579 117.468 157.011 118.188C157.467 118.908 158.079 119.472 158.847 119.88C159.615 120.264 160.491 120.456 161.475 120.456ZM183.838 126.288C182.182 126.288 180.586 126.096 179.05 125.712C177.538 125.304 176.338 124.8 175.45 124.2L177.322 120.168C178.21 120.72 179.254 121.176 180.454 121.536C181.678 121.872 182.878 122.04 184.054 122.04C185.35 122.04 186.262 121.884 186.79 121.572C187.342 121.26 187.618 120.828 187.618 120.276C187.618 119.82 187.402 119.484 186.97 119.268C186.562 119.028 186.01 118.848 185.314 118.728C184.618 118.608 183.85 118.488 183.01 118.368C182.194 118.248 181.366 118.092 180.526 117.9C179.686 117.684 178.918 117.372 178.222 116.964C177.526 116.556 176.962 116.004 176.53 115.308C176.122 114.612 175.918 113.712 175.918 112.608C175.918 111.384 176.266 110.304 176.962 109.368C177.682 108.432 178.714 107.7 180.058 107.172C181.402 106.62 183.01 106.344 184.882 106.344C186.202 106.344 187.546 106.488 188.914 106.776C190.282 107.064 191.422 107.484 192.334 108.036L190.462 112.032C189.526 111.48 188.578 111.108 187.618 110.916C186.682 110.7 185.77 110.592 184.882 110.592C183.634 110.592 182.722 110.76 182.146 111.096C181.57 111.432 181.282 111.864 181.282 112.392C181.282 112.872 181.486 113.232 181.894 113.472C182.326 113.712 182.89 113.904 183.586 114.048C184.282 114.192 185.038 114.324 185.854 114.444C186.694 114.54 187.534 114.696 188.374 114.912C189.214 115.128 189.97 115.44 190.642 115.848C191.338 116.232 191.902 116.772 192.334 117.468C192.766 118.14 192.982 119.028 192.982 120.132C192.982 121.332 192.622 122.4 191.902 123.336C191.182 124.248 190.138 124.968 188.77 125.496C187.426 126.024 185.782 126.288 183.838 126.288Z" fill="#FF7A00"/>
</svg>
